<svg xmlns="http://www.w3.org/2000/svg" viewBox="0 0 100 100" fill="none">
  <rect width="100" height="100" rx="20" fill="#3776ab" fill-opacity="0.15"/>
  <path d="M38 25H55C62 25 65 30 65 36V42H48C41 42 38 47 38 53V75H30C23 75 20 70 20 64V36C20 30 23 25 30 25H38Z" stroke="white" stroke-width="4"/>
  <path d="M62 75H45C38 75 35 70 35 64V58H52C59 58 62 53 62 47V25H70C77 25 80 30 80 36V64C80 70 77 75 70 75H62Z" stroke="white" stroke-width="4"/>
  <circle cx="32" cy="50" r="3" fill="white"/>
  <circle cx="68" cy="50" r="3" fill="white"/>
</svg>
